<svg id="Layer_1" data-name="Layer 1" xmlns="http://www.w3.org/2000/svg" viewBox="0 0 635.97 676.08"><defs><style>.cls-1{fill:#fff;}.cls-2{fill:#ce2338;}</style></defs><title>CBRE_45 &amp;amp; 50 Grosvenor Street Abbotsford_Website Assets</title><polygon class="cls-1" points="163.25 384.65 194.43 384.65 194.43 374.75 173.85 374.75 173.85 361.83 191.64 361.83 191.64 351.85 173.85 351.85 173.85 340.4 194.43 340.4 194.43 330.5 163.25 330.5 163.25 384.65"/><path class="cls-1" d="M294,329.5c-15.86,0-27.08,11.84-27.08,28s11.22,28.16,27.15,28.16c13.85,0,22-7.2,25-19H307.88c-1.86,5.26-6.19,9.05-13.77,9.05-9.67,0-16.09-7.74-16.09-18.26s6.42-18.1,16-18.1c7.27,0,11.22,3.25,13.15,8.59h11.68C316,337.08,307.8,329.5,294,329.5"/><polygon class="cls-1" points="368.13 330.5 368.13 351.62 344.93 351.62 344.93 330.5 334.33 330.5 334.33 384.65 344.93 384.65 344.93 361.6 368.13 361.6 368.13 384.65 378.81 384.65 378.81 330.5 368.13 330.5"/><path class="cls-1" d="M413.13,330.5l-21,54.15h11.53l4.49-12h21.58l4.49,12h11.53l-21-54.15Zm-1.62,32.88,6.42-16.94,1-3,1,3,6.42,16.94Z"/><polygon class="cls-1" points="494.14 384.65 504.81 384.65 504.81 330.5 494.14 330.5 494.14 367.01 491.89 363.3 469.69 330.5 459.17 330.5 459.17 384.65 469.77 384.65 469.77 348.37 471.86 351.93 494.14 384.65"/><path class="cls-1" d="M573,360.13v-4.72H548.72v9.9h12.92c-.54,6.73-5.8,10.44-13.61,10.44-9.83,0-16.25-7.74-16.25-18.26s6.42-18.1,15.78-18.1c7.5,0,11.45,3.25,13.38,8.59h11.68c-2.86-10.91-11.06-18.49-24.83-18.49-15.86,0-27.07,11.83-27.07,28s11.22,28.16,27.31,28.16c14.85,0,25-9.28,25-25.53"/><polygon class="cls-1" points="621 330.5 589.82 330.5 589.82 384.65 621 384.65 621 374.75 600.42 374.75 600.42 361.83 618.21 361.83 618.21 351.85 600.42 351.85 600.42 340.4 621 340.4 621 330.5"/><path class="cls-1" d="M621.42,297.79c0-6.05-3.93-10-10.1-10h-7.06v20.08h7.06c6.17,0,10.1-4,10.1-10m-1.92,0c0,5.14-3.21,8.26-8.17,8.26h-5.17V289.52h5.17c5,0,8.17,3.16,8.17,8.26m-33.42,10L581.22,299a5.34,5.34,0,0,0,4-5.42c0-3.56-2.44-5.88-6.31-5.88h-5.08v20.08h1.89v-8.46h3.56l4.62,8.46Zm-7.17-10.21h-3.18v-8.09h3.18c2.64,0,4.42,1.55,4.42,4.1s-1.81,4-4.42,4m-23.84.14c0-5.91-4.24-10.38-10.16-10.38a10,10,0,0,0-10.18,10.38c0,5.94,4.25,10.44,10.18,10.44s10.16-4.5,10.16-10.44m-2,0c0,4.93-3.38,8.66-8.17,8.66s-8.2-3.73-8.2-8.66,3.38-8.61,8.2-8.61,8.17,3.7,8.17,8.61m-44.15-8.24h8.61v-1.78H507v20.08h1.89v-9.18h7.32v-1.81h-7.32Zm-30.47,3.13A3.25,3.25,0,0,1,482,289.1a3.49,3.49,0,0,1,3.73,3.79h1.92c-.06-3.59-2.27-5.51-5.62-5.51a5.1,5.1,0,0,0-5.48,5.36c0,3.21,2,4.45,5.28,5.77s4.59,2.18,4.59,4.1a3.68,3.68,0,0,1-4,3.87c-2.81,0-4.5-1.58-4.53-4.45h-1.92c0,3.7,2.38,6.17,6.43,6.17,3.56,0,6-2.12,6-5.68,0-3-1.72-4.25-5.65-5.76-2.87-1.21-4.22-1.9-4.22-4.1m-26.74-3.13h7.43v-1.78H442.38v1.78h7.43v18.3h1.89Zm-24.51,8.24c0-5.91-4.25-10.38-10.15-10.38a10,10,0,0,0-10.18,10.38c0,5.94,4.25,10.44,10.18,10.44s10.15-4.5,10.15-10.44m-2,0c0,4.93-3.39,8.66-8.18,8.66s-8.2-3.73-8.2-8.66,3.38-8.61,8.2-8.61,8.18,3.7,8.18,8.61m-35.83,4.42a5,5,0,0,0-3.64-4.93,4.69,4.69,0,0,0,2.35-4.19c0-3.24-2.35-5.31-6.11-5.31h-5.17v20.08h6.05c4.07,0,6.51-2.24,6.51-5.65m-7.26-5.54h-3.41v-7.12H382c2.58,0,4.22,1.32,4.22,3.59,0,2.09-1.61,3.53-4.07,3.53m5.34,5.51c0,2.44-1.75,3.9-4.59,3.9h-4.16v-7.63h4.16c2.9,0,4.59,1.46,4.59,3.73m-29.27,0a5,5,0,0,0-3.64-4.93,4.69,4.69,0,0,0,2.35-4.19c0-3.24-2.35-5.31-6.11-5.31h-5.16v20.08h6.05c4.07,0,6.51-2.24,6.51-5.65m-7.26-5.54h-3.41v-7.12h3.27c2.58,0,4.22,1.32,4.22,3.59,0,2.09-1.61,3.53-4.07,3.53m5.34,5.51c0,2.44-1.75,3.9-4.59,3.9h-4.16v-7.63h4.16c2.9,0,4.59,1.46,4.59,3.73m-30.87,5.68h2.12l-8.23-20.08h-1.81l-8.2,20.08h2.12l2.32-5.82H323Zm-3-7.63h-8l3.62-8.78.37-1.06.37,1.06Z"/><path class="cls-1" d="M621.42,408.58v-1h-9.28v1h4.12v10.15h1V408.58ZM580.7,418.72h6v-1h-4.93v-4.27h4.37v-1h-4.37v-3.91h4.93v-1h-6Zm-72.76-7.87a3.16,3.16,0,0,0-3.5-3.26h-2.81v11.13h1V414h2l2.56,4.69h1.21l-2.69-4.87a3,3,0,0,0,2.21-3m-1,0a2.18,2.18,0,0,1-2.45,2.21h-1.77v-4.49h1.77a2.21,2.21,0,0,1,2.45,2.28m-113.13-3.46a5.77,5.77,0,1,0,5.63,5.75,5.53,5.53,0,0,0-5.63-5.75m0,1a4.79,4.79,0,1,1-4.55,4.77,4.51,4.51,0,0,1,4.55-4.77m-63.49,4.77c0-3.47-1.29-5.75-3.62-5.75s-3.62,2.29-3.62,5.75,1.27,5.79,3.62,5.79,3.62-2.3,3.62-5.79m-1.08,0c0,2.91-.86,4.8-2.55,4.8s-2.56-1.89-2.56-4.8.86-4.77,2.56-4.77,2.55,1.88,2.55,4.77m-91.1-5.55-4.58,7.84v.86h4.66v2.43h1v-2.43h1.64v-1h-1.64v-7.73Zm-.3,2.43.38-.71v6h-3.48Zm13.66,5.77h-1a2.94,2.94,0,0,0,3.27,3.13,3.34,3.34,0,0,0,3.39-3.62,3.17,3.17,0,0,0-3.31-3.42,3.71,3.71,0,0,0-2,.48v-3.79h4.68v-1h-5.74v5.83h.92a3.74,3.74,0,0,1,2-.56,2.23,2.23,0,0,1,2.32,2.47,2.3,2.3,0,0,1-2.31,2.61,2,2,0,0,1-2.23-2.15m26,0c0,2,1.52,3.08,3.64,3.08a4.1,4.1,0,0,0,3.17-1.38l1.06,1.18h1.35l-1.86-2.05a4.71,4.71,0,0,0,.44-1.83,6,6,0,0,0-.24-2.07l-1,.16a4.9,4.9,0,0,1,.22,1.85,5.15,5.15,0,0,1-.18,1.05l-2.7-3,0,0c1.1-.68,2.26-1.34,2.26-2.93a2.35,2.35,0,0,0-2.54-2.46,2.43,2.43,0,0,0-2.64,2.46,3.62,3.62,0,0,0,1.11,2.48l.27.3-.19.11c-1.19.73-2.21,1.57-2.21,3.1m3.37-3.8-.1.06-.29-.33a2.88,2.88,0,0,1-.92-1.92,1.51,1.51,0,0,1,1.61-1.54,1.43,1.43,0,0,1,1.46,1.58c0,1.18-.91,1.64-1.77,2.16m-2.29,3.79c0-1.16.79-1.77,1.86-2.43l.1,0,3.12,3.48a2.9,2.9,0,0,1-2.5,1.18c-1.58,0-2.58-.73-2.58-2.18m29.56,0h-1a2.94,2.94,0,0,0,3.27,3.13,3.34,3.34,0,0,0,3.39-3.62,3.18,3.18,0,0,0-3.31-3.42,3.71,3.71,0,0,0-2,.48v-3.79h4.68v-1h-5.74v5.83h.92a3.74,3.74,0,0,1,2-.56,2.23,2.23,0,0,1,2.32,2.47,2.3,2.3,0,0,1-2.31,2.61,2,2,0,0,1-2.23-2.15m43.14-2.64a5.46,5.46,0,0,0,5.48,5.77c3.18,0,5-2,5-5.12v-.63h-4.79v1h3.69c0,2.62-1.65,3.77-3.91,3.77-2.58,0-4.39-2.05-4.39-4.79s1.81-4.79,4.37-4.79a3.58,3.58,0,0,1,3.68,2.37h1.17a4.69,4.69,0,0,0-4.85-3.35,5.45,5.45,0,0,0-5.47,5.77m23.61-5.57H372v11.13h1V414h2l2.56,4.69h1.21l-2.69-4.87a3,3,0,0,0,2.21-3,3.16,3.16,0,0,0-3.5-3.26m-1.77,1h1.77a2.21,2.21,0,0,1,2.45,2.28,2.18,2.18,0,0,1-2.45,2.21h-1.77Zm37,6.94H409a3.25,3.25,0,0,0,3.56,3.42,3,3,0,0,0,3.32-3.14c0-1.64-1-2.36-3.13-3.2-1.59-.67-2.34-1-2.34-2.27a1.8,1.8,0,0,1,2-2,1.94,1.94,0,0,1,2.07,2.1h1.06a2.85,2.85,0,0,0-3.12-3,2.82,2.82,0,0,0-3,3c0,1.78,1.1,2.47,2.92,3.2s2.55,1.21,2.55,2.27a2,2,0,0,1-2.24,2.15,2.28,2.28,0,0,1-2.51-2.46m16.17-7.92h-1.15l4.56,11.13h.92l4.56-11.13H434l-3.67,9-.21.68-.22-.68Zm24.76,0h-6v11.13h6v-1h-4.93v-4.27h4.37v-1h-4.37v-3.91H451Zm11.32,0h-1v11.13h1v-9.3l.43.65,6,8.65h1V407.59h-1v9.3l-.48-.7Zm17.78,5.55a5.64,5.64,0,1,0,5.64-5.75,5.55,5.55,0,0,0-5.64,5.75m1.09,0a4.55,4.55,0,1,1,4.55,4.8,4.51,4.51,0,0,1-4.55-4.8m48.89,2.37H529a3.25,3.25,0,0,0,3.56,3.42,3,3,0,0,0,3.32-3.14c0-1.64-1-2.36-3.13-3.2-1.59-.67-2.34-1-2.34-2.27a1.8,1.8,0,0,1,2-2,1.94,1.94,0,0,1,2.07,2.1h1.06a2.85,2.85,0,0,0-3.12-3,2.82,2.82,0,0,0-3,3c0,1.78,1.09,2.47,2.92,3.2s2.55,1.21,2.55,2.27a2,2,0,0,1-2.24,2.15,2.28,2.28,0,0,1-2.51-2.46m24.15-7.92H545v1h4.12v10.15h1V408.58h4.12Zm12.55,0H564v11.13h1V414h2l2.56,4.69h1.21l-2.69-4.87a3,3,0,0,0,2.21-3,3.16,3.16,0,0,0-3.5-3.26m-1.77,1h1.77a2.21,2.21,0,0,1,2.45,2.28,2.18,2.18,0,0,1-2.45,2.21H565Zm37.94-1h-6v11.13h6v-1H598v-4.27h4.37v-1H598v-3.91H603Z"/><polygon class="cls-2" points="470.34 2.15 235.49 349.09 223.04 330.3 210.5 330.3 228.22 356.98 13.34 675.15 25.79 675.15 235.49 364.87 248.48 384.45 261.02 384.45 242.76 356.98 482.87 2.15 470.34 2.15"/></svg>