<svg id="Layer_1" data-name="Layer 1" xmlns="http://www.w3.org/2000/svg" viewBox="0 0 635.08 213.9"><defs><style>.cls-1{fill:#414042;}</style></defs><title>CBRE_45 &amp;amp; 50 Grosvenor Street Abbotsford_Website Assets</title><path class="cls-1" d="M95.44,110.7C95.44,93.76,107,81.3,124.89,79c8.52-1.11,55.06-.59,55.55-.58h1l.1-27.89h-1l-52.68.1c-5.86.36-15.59.95-25.55,5a62.49,62.49,0,0,0-24.1,19.48,60.94,60.94,0,0,0-12.1,36.57,74,74,0,0,0,1,12.29,59.74,59.74,0,0,0,33.48,42.27c5.91,2.6,15,5.71,33.39,6.74l9.9.21s36.73,0,36.73,0h1l.11-29.52-1,0c-.43,0-40.85.79-54.81-.57-22.47-2.21-30.44-18.84-30.44-32.42M281.69,87a10.49,10.49,0,0,1-8.76,10.27l-42.61.07,0-20.16h42.88l.16,0A10,10,0,0,1,281.69,87m-51.4,37h41.82l.09,0a10.21,10.21,0,0,1,9.14,10.05,10.57,10.57,0,0,1-10.24,10.46H230.29ZM291,109.91c15.63-5.19,18.47-18.31,18.43-29,0-16.33-11.56-30.44-45.67-30.44H200.07V173.11h63.52c34.33,0,47-17.61,47-35.26,0-21.36-19.54-27.94-19.54-27.94M406.85,88.71a10.16,10.16,0,0,1-9.6,8.41l-42,0V77.49h42A9.63,9.63,0,0,1,406.85,86Zm27.75-6c0-26.54-22.81-32.1-44.06-32.1H325.46V173.33h29.88V123.69l32.91,0A17.1,17.1,0,0,1,405,141v32.19h29.25l-.06-39.59c0-18.35-17.72-23.77-17.72-23.77s18.12-5.41,18.12-27.1m48.52,62.57V123.92h70V97h-70L483,77.25H560.7l.06-26.76H453.15V173.37H560.77l0-28Z"/></svg>