<svg id="Layer_1" data-name="Layer 1" xmlns="http://www.w3.org/2000/svg" viewBox="0 0 635.08 213.9"><defs><style>.cls-1{fill:#414042;}</style></defs><title>CBRE_45 &amp;amp; 50 Grosvenor Street Abbotsford_Website Assets</title><path class="cls-1" d="M566.94,160.52,559.73,156c-6.22-3.93-4.22-9.43.43-9.43,7.37,0,9.65,6.43,10.58,8.93H572v-8s-3.57-2.14-11.8-2.14c-7.15,0-9.87,3.57-9.87,3.57-3.93,5.15-2.07,10.94,4.86,15.15l7.22,4.36c5.43,3.57,4.58,10-.5,10-8.36,0-10.65-8.29-11.72-11.08h-1.21v9s4.29,3.29,12.94,3.29c7.29,0,10-3.86,10-3.86,3.58-5.15,1.43-11.37-4.93-15.3m-27,14.08c-3.57,0-5.29-2.07-5.29-6.08v-21.3h8.22l.28-1.22h-8.51V134.92l-8.94,1.5V146h-3.79l.21,1.22h3.57v21.51c0,8.65,3.36,10.94,9,10.94a12.31,12.31,0,0,0,10.58-6.94l-1.07-.64a5.26,5.26,0,0,1-4.29,2.5m-36.67-29.24c-9.87,0-16.73,7.22-16.73,17.3,0,8.36,6.43,17,15.8,17,9.58,0,13.8-5.65,14.94-9.36l-1.21-.64c-1.79,3.36-7.51,4.79-11.37,3.93-4.79-1.07-8.37-4.72-8.94-11.72h22.73c0-11.15-4.86-16.51-15.23-16.51m-7.51,15.3c0-6.87,2.93-14.08,7.15-14.08,3.93,0,6.87,5.08,6.87,14.08Zm-15.87,13.58s-.14,0-10.73-14.94c9.51-11.72,16.8-11.94,18.09-12.08V146H469.87v1.22c9.29-.29-.93,10.08-.93,10.08l-6.72,7.29s1.86,2.86,4,6c4.79,7.15,5.43,8.44,10.37,8.44h10.08v-1.21a8.47,8.47,0,0,1-6.79-3.57m-19.09-3.86V125.7l-12.51,2.64v1.21c2.86,1.08,3.57,2.15,3.57,4.65v36.17c0,3.64-.14,6.65-2.86,7.44V179h14.72v-1.21c-2.57-.64-2.93-3.5-2.93-7.44m-20.88-24.66c-1.72.71-4.64,1.78-8.43,7.72v-8.08l-12.59,2.86v1.22c2.93,1.5,3.57,2.57,3.57,5v15.87c0,3.71-.07,6.65-2.86,7.51V179h14.8v-1.21c-2.57-.71-2.93-3.5-2.93-7.51V155.44c2.64-4.29,5.57-5,5.57-4.22a4.78,4.78,0,0,0,1.65,3.5,5.35,5.35,0,0,0,7-8.08,6.4,6.4,0,0,0-5.79-.93m-25.09,29.6c-3.5,0-3.43-5-3.43-5V159.66c0-8.44-2.57-14.3-11.94-14.3a14.24,14.24,0,0,0-6.94,1.43c-3.93,2.07-4.86,4-5.58,5.22a4.22,4.22,0,0,0,.21,4.29,4.11,4.11,0,0,0,5.65,1.07,4,4,0,0,0,1.07-5.65,3.7,3.7,0,0,0-2.65-1.57c-.5-.07-.21-1.29,2.08-2.43,4.93-2.57,9.08,1.15,9.08,8.58v4.43c-12.51,3.15-18.52,3.86-18.52,11.65,0,7.29,8.22,7.29,8.22,7.29,5.07,0,9.29-2.65,10.37-5.79.78,5.79,7.15,5.79,7.15,5.79,4.5,0,7.79-2.79,8.36-5.08l-1.21-.5a2.12,2.12,0,0,1-1.93,1.21m-12.44-3.64a5.28,5.28,0,0,1-4.72,3.64c-4.64,0-4.64-4.72-4.64-4.72,0-3.64,2.36-7,9.36-8.58Zm-28.17-1.29V136.21c0-4.36,2.43-6.29,5.51-6.29V128.7h-15.8L349.62,165,332.39,128.7h-18v1.22c1.78.14,5.36.14,8.08,4.93v26.09s0,16.87-10.72,16.87V179h21.66v-1.21c-9.86,0-9.73-16.87-9.73-16.87V136.78l20,42.9h1.22l19-47.62v38.32c0,4.86-2.15,7.44-5.15,7.44V179h21.59v-1.21c-3.08,0-6.15-2.57-6.15-7.44m-98.87-25c-9.87,0-16.73,7.22-16.73,17.3,0,8.36,6.43,17,15.8,17,9.58,0,13.8-5.65,14.94-9.36l-1.21-.64c-1.78,3.36-7.51,4.79-11.37,3.93-4.79-1.07-8.36-4.72-8.93-11.72h22.73c0-11.15-4.86-16.51-15.23-16.51m-7.51,15.3c0-6.87,2.93-14.08,7.15-14.08,3.93,0,6.86,5.08,6.86,14.08ZM252,170.38V125.7l-12.51,2.64v1.21c2.86,1.08,3.57,2.15,3.57,4.65v36.17c0,3.64-.14,6.65-2.86,7.44V179h14.65v-1.21c-2.5-.64-2.86-3.5-2.86-7.44M233.8,172.1V125.7l-12.51,2.64v1.21c2.93,1.08,3.65,1.79,3.65,4.29v13.65a17,17,0,0,0-8.58-2.14c-10,0-17.58,5.15-17.58,16.66,0,11.29,7.15,17.66,15.22,17.66,3.36,0,8.65-1.57,10.94-5.79v4.43s0,1.57,2,1.28L237.45,178v-1.21c-2.93-.36-3.65-1.21-3.65-4.72m-8.86-3.5c0,5-3,8.58-7.86,8.58-5.8,0-8.15-4.29-8.15-15.8,0-10.87,2.29-14.8,7.51-14.8,4.07,0,8.51,2.93,8.51,11.94Zm-32.53,3.5V125.7l-12.51,2.64v1.21c2.93,1.08,3.64,1.79,3.64,4.29v13.65a16.93,16.93,0,0,0-8.58-2.14c-10,0-17.59,5.15-17.59,16.66,0,11.29,7.15,17.66,15.23,17.66,3.36,0,8.65-1.57,10.94-5.79v4.43s0,1.57,2,1.28L196.06,178v-1.21c-2.93-.36-3.65-1.21-3.65-4.72m-8.86-3.5c0,5-3,8.58-7.86,8.58-5.79,0-8.15-4.29-8.15-15.8,0-10.87,2.29-14.8,7.51-14.8,4.07,0,8.51,2.93,8.51,11.94Zm-33.46,1.72v-25l-12.51,2.86v1.22c2.94,1.57,3.65,2.57,3.65,5v15.87c0,3.64-.14,6.65-2.86,7.51V179H153v-1.21c-2.57-.71-2.93-3.5-2.93-7.51m-.21-35.53a4.88,4.88,0,0,0-4.93-4.86,4.86,4.86,0,1,0,0,9.72,4.88,4.88,0,0,0,4.93-4.86m-21,35.6V136.21c0-4.36,2.43-6.29,5.5-6.29V128.7h-15.8L104.26,165,87,128.7H69v1.22c1.79.14,5.36.14,8.08,4.93v26.09s0,16.87-10.72,16.87V179H88v-1.21c-9.86,0-9.72-16.87-9.72-16.87V136.78l20,42.9h1.21l19-47.62v38.32c0,4.86-2.14,7.44-5.15,7.44V179H135v-1.21c-3.07,0-6.15-2.57-6.15-7.44"/><path class="cls-1" d="M551,61.35c-14.45,0-24.5,10.57-24.5,25.34,0,12.25,9.42,24.92,23.14,24.92,14,0,20.21-8.27,21.89-13.72l-1.78-.94c-2.62,4.92-11,7-16.65,5.76-7-1.57-12.25-6.91-13.09-17.17h33.3c0-16.34-7.12-24.19-22.3-24.19m-11,22.4c0-10.05,4.29-20.62,10.47-20.62,5.76,0,10.06,7.43,10.06,20.62ZM517.13,97.89V77.27c0-12.67-5-15.92-13.19-15.92-6.59,0-14.87,4.82-17.27,11.2V61.35l-18.33,4.19v1.78c4.29,2.31,5.24,3.46,5.24,7.12V98.11c0,5.34-.1,9.63-4.08,10.78v1.78H491v-1.78c-3.66-1-4.29-5-4.29-10.78V77.48c0-4.19,4.82-8.59,8.9-8.59,5.23,0,8.48,3.66,8.48,8.69V97.89c0,5.34-.21,9.84-4.19,11v1.78h21.57v-1.78c-3.77-.94-4.29-5.23-4.29-11m-61-36c-2.51,1-6.81,2.62-12.36,11.31V61.35l-18.43,4.19v1.78c4.29,2.2,5.24,3.77,5.24,7.33V97.89c0,5.45-.11,9.74-4.19,11v1.78H448v-1.78c-3.77-1-4.29-5.13-4.29-11V76.11c3.87-6.28,8.17-7.33,8.17-6.17a7,7,0,0,0,2.41,5.13,7.83,7.83,0,0,0,10.26-11.84,9.38,9.38,0,0,0-8.48-1.36M417.76,101V61.35l-18,2v1.78c5.34.63,4.92,2,4.92,8.38V97.16c-2.19,4.19-6.17,6.81-9.11,6.81-6.07,0-8.79-2.83-8.79-8.69V61.35l-18.85,2v1.78c6.07.84,5.86,1.78,5.86,8.06V95.59c0,12.57,4.92,16,13.19,16,6.49,0,15.19-5.34,17.7-11.31v9.22s.11,2.41,2.93,2l15.5-2.72V107c-4.39-.53-5.34-.94-5.34-6m-79.59,8.79c-7.54,0-9.53-4.39-9.53-23.35s2-23.35,9.53-23.35,9.43,4.39,9.43,23.35-1.89,23.35-9.43,23.35m0-48.48c-15.92,0-24.92,11.31-24.92,25.13s9,25.13,24.92,25.13,24.92-11.42,24.92-25.13-8.9-25.13-24.92-25.13m-54.34,0c-5,0-12.78,2.62-16.13,8.9V32.55l-18.32,3.88v1.78c4.29,1.57,5.34,3.14,5.34,6.7v65.24c0,1.68,6.49-.63,10.26-3.87,3.46,3.46,9,5.34,15.29,5.34,14.66,0,25.76-7.64,25.76-24.5,0-16.55-10.47-25.76-22.2-25.76m-3.66,48.48c-6,0-12.46-4.29-12.46-17.49V79c0-7.44,3.77-13.3,10.89-13.3,8.59,0,12.46,5.44,12.46,22.2,0,16-3.24,21.88-10.89,21.88M241.94,98V32.55l-18.32,3.88v1.78c4.19,1.57,5.24,3.14,5.24,6.81V98c0,5.34-.21,9.74-4.19,10.89v1.78h21.47v-1.78c-3.66-.94-4.19-5.13-4.19-10.89M195.66,61.35c-14.45,0-24.51,10.57-24.51,25.34,0,12.25,9.43,24.92,23.14,24.92,14,0,20.21-8.27,21.89-13.72l-1.78-.94c-2.62,4.92-11,7-16.65,5.76-7-1.57-12.25-6.91-13.09-17.17H218c0-16.34-7.12-24.19-22.3-24.19m-11,22.4c0-10.05,4.29-20.62,10.47-20.62,5.76,0,10.05,7.43,10.05,20.62ZM157.54,98V47.94c0-6.39,3.56-9.22,8.06-9.22V36.95H142.46L121.52,90,96.29,36.95H69.9v1.78c2.62.21,7.85.21,11.83,7.23V84.18s0,24.71-15.71,24.71v1.78H97.75v-1.78c-14.45,0-14.24-24.71-14.24-24.71V48.78l29.32,62.83h1.78l27.85-69.74V98c0,7.12-3.14,10.89-7.54,10.89v1.78h31.62v-1.78c-4.51,0-9-3.77-9-10.89"/></svg>